Coordinates
version=1
nRows=7
nColumns=40
inDegrees=yes

Units are S.I. units (second, meters, Newtons, ...)
If the header above contains a line with 'inDegrees', this indicates whether rotational values are in degrees (yes) or radians (no).

endheader
time	pelvis_tilt	pelvis_list	pelvis_rotation	pelvis_tx	pelvis_ty	pelvis_tz	hip_flexion_r	hip_adduction_r	hip_rotation_r	knee_angle_r	knee_angle_r_beta	ankle_angle_r	subtalar_angle_r	mtp_angle_r	hip_flexion_l	hip_adduction_l	hip_rotation_l	knee_angle_l	knee_angle_l_beta	ankle_angle_l	subtalar_angle_l	mtp_angle_l	lumbar_extension	lumbar_bending	lumbar_rotation	arm_flex_r	arm_add_r	arm_rot_r	elbow_flex_r	pro_sup_r	wrist_flex_r	wrist_dev_r	arm_flex_l	arm_add_l	arm_rot_l	elbow_flex_l	pro_sup_l	wrist_flex_l	wrist_dev_l
      7.84999999999999964473	     11.03134293691075562549	     -3.15199957267908814629	   -168.33728046856586502145	      0.30930055479309936928	      0.76238530208291654944	     -0.61532890922633631803	     60.02860489764326956674	    -20.14384276508416249385	      0.09980308824527758804	     67.61361510491101967091	      1.18008020275686864586	     22.39399384897217615276	      0.00000000000000000000	      0.00000000000000000000	     60.80596826173233893087	     -1.52025618119665062444	      0.22514814452935841271	     64.76380079230280273350	      1.13034155993139617813	     16.48472580043548418871	      0.00000000000000000000	      0.00000000000000000000	    -62.03152446099734618201	      9.03262212991814195107	    -10.09439415536472850476	     60.74433187539861478399	      0.58271538355795027275	     20.70561583564042251737	      4.73451070488341496656	     16.76651730583932220497	      0.00000000000000000000	      0.00000000000000000000	     66.01875486034384721279	    -11.73663208862713069891	     77.18089540833196338099	      6.14006212926482053405	     77.51200392680814843516	      0.00000000000000000000	      0.00000000000000000000
      7.85500000000000042633	     11.04914616456632181496	     -3.09524032810990590292	   -168.31813793302370640959	      0.30930099426784579686	      0.76333751335890764889	     -0.61508089178960001497	     59.89213318982092459919	    -20.15192005310106537763	     -0.03910330807883539289	     67.37363556552610077688	      1.17589176965718222867	     22.17179086924453912388	      0.00000000000000000000	      0.00000000000000000000	     60.71188729847825982233	     -1.52354298627250095421	      0.25523922195252551903	     64.55091829875938458372	      1.12662605949920791026	     16.36105886387781893632	      0.00000000000000000000	      0.00000000000000000000	    -62.00892602858276347888	      9.12562020585193245381	    -10.02459210936692102223	     60.72839995046278005475	      0.43910999154529256616	     19.96771520298500490753	      4.99133105052257253220	     18.43491897043495697517	      0.00000000000000000000	      0.00000000000000000000	     65.81779208916897516701	    -11.14202540566105170683	     73.49348707685057036088	      5.40739446962496828064	     75.72218854642723329107	      0.00000000000000000000	      0.00000000000000000000
      7.86000000000000031974	     10.99137084503078121145	     -3.04250367492356144083	   -168.34715253133344958769	      0.30956483451056759915	      0.76432184178701700894	     -0.61498113263071063628	     59.67506525610363610213	    -20.09046161279086106788	     -0.15811172702196218953	     67.09280221316386416675	      1.17099030300904782820	     22.12402649448594260662	      0.00000000000000000000	      0.00000000000000000000	     60.54174136431795716362	     -1.56713276520121369551	      0.27817467646959204153	     64.31273923622435972902	      1.12246905064865831747	     16.27710789110230393817	      0.00000000000000000000	      0.00000000000000000000	    -62.01064054014416626615	      9.12031205848091630628	     -9.98076040871139014143	     60.87447958054583807552	      0.60073248154990344094	     19.94779080735664322788	      4.62663256333912276119	     17.31292055889917946843	      0.00000000000000000000	      0.00000000000000000000	     66.00322285426001656106	    -11.66671719610668844780	     77.21361345459581571049	      6.11162237562850929606	     77.64007723000291605331	      0.00000000000000000000	      0.00000000000000000000
      7.86500000000000021316	     11.09886817910152601030	     -3.07110678662733560529	   -168.20165231126034655063	      0.30951274798373124009	      0.76516638169702744232	     -0.61473731653186480806	     59.63133292520387129798	    -20.28940878225142796509	     -0.32373058520202840915	     66.88833438536870801272	      1.16742166619962151053	     22.00771318361543293918	      0.00000000000000000000	      0.00000000000000000000	     60.48677384723673355893	     -1.40909731736970278426	      0.28113600353322959480	     64.02066307546512291538	      1.11737135997682535127	     16.16891528633166430495	      0.00000000000000000000	      0.00000000000000000000	    -61.84630218397425238663	      9.23516952251954137409	    -10.20713548368143186451	     60.95277394211161237081	      0.81801986115340086236	     19.80282004829963327097	      4.37245534648727574023	     17.67116672929242326973	      0.00000000000000000000	      0.00000000000000000000	     65.82236593250132727917	    -11.81421209849620623800	     76.01075397038701453312	      6.26075665942336545555	     77.09741004538089725884	      0.00000000000000000000	      0.00000000000000000000
      7.87000000000000010658	     11.03332962344257417442	     -3.10799478919356664264	   -168.36246473133519430121	      0.30968517477285789630	      0.76636255320703383642	     -0.61489140176365675305	     59.42877563386092987230	    -20.18147948131565527774	     -0.32740926669229819534	     66.57161722183565188971	      1.16189390889839239129	     21.85468054462676334992	      0.00000000000000000000	      0.00000000000000000000	     60.23795538688265338578	     -1.54193841443265511337	      0.12928034698189000418	     63.74370673791096209015	      1.11253756000224046652	     16.07205932445330276437	      0.00000000000000000000	      0.00000000000000000000	    -61.91231084984778476610	      9.06369679996378074804	    -10.11088026312063270495	     60.84729850363611092234	      0.70159090535463708438	     20.05856014689539179585	      4.58727997662224318276	     17.44763197302415491663	      0.00000000000000000000	      0.00000000000000000000	     65.91618225411561127203	    -11.74018879339044829635	     77.18019577854083479451	      6.15753668883597260475	     77.23880917876601870375	      0.00000000000000000000	      0.00000000000000000000
      7.87500000000000000000	     11.00925643242351625872	     -3.06053787273935862245	   -168.38337362525683715830	      0.30980087885780754897	      0.76755453297567810544	     -0.61479870283764836980	     59.22028848722084859446	    -20.16899542105621634391	     -0.50022708084973099840	     66.26193335935951722604	      1.15648890585789065888	     21.69688750654675857277	      0.00000000000000000000	      0.00000000000000000000	     60.05830701246366487567	     -1.59384273892613936852	      0.10856534732584979808	     63.45240576024141176958	      1.10745339882762827699	     15.95733348681008934022	      0.00000000000000000000	      0.00000000000000000000	    -61.92692610733557501135	      9.08806335515579455375	     -9.98106819580922532964	     60.85669525130486334774	      0.60312427546284241853	     20.20866454927108790685	      4.58735737166634294226	     17.14396297318895889816	      0.00000000000000000000	      0.00000000000000000000	     65.91884672335861239389	    -11.62443107966828215183	     76.85619359287511542789	      6.15294042441022348555	     77.31052126906911325932	      0.00000000000000000000	      0.00000000000000000000
      7.87999999999999989342	     11.05108347467884222226	     -2.98668783637686274801	   -168.29592770070127016879	      0.30997246949948525918	      0.76869873538340327546	     -0.61448757100839468404	     59.04664898563496677752	    -20.28523643806535758927	     -0.81515101132300882281	     65.93721832171588914662	      1.15082155932027196954	     21.51909602303702229165	      0.00000000000000000000	      0.00000000000000000000	     59.96025731827266724849	     -1.53057507696279304632	      0.19174325715972573292	     63.14387425366846429142	      1.10206850819179180689	     15.79572701667334833076	      0.00000000000000000000	      0.00000000000000000000	    -61.85928335857435200751	      9.21874951003818843276	    -10.01963804216754461152	     60.85228685335189879879	      0.70594299025942364167	     20.33015901144160153535	      4.88030307905222215936	     15.21109612304324087972	      0.00000000000000000000	      0.00000000000000000000	     65.92534486892797929158	    -11.58514174378210803695	     76.56317432345389306647	      6.00605163512916906399	     78.66708324722577572174	      0.00000000000000000000	      0.00000000000000000000
